<svg width="51" height="14" xmlns="http://www.w3.org/2000/svg">
<path d="M7.236 1.01266C3.51 1.01266 0.612 3.76666 0.612 7.34866C0.612 10.9667 3.474 13.7567 7.164 13.7567C8.946 13.7567 10.764 12.9467 12.042 11.6867L10.782 10.2827C9.828 11.2007 8.532 11.7767 7.272 11.7767C4.752 11.7767 2.772 9.81466 2.772 7.33066C2.772 4.84666 4.752 2.90266 7.272 2.90266C8.55 2.90266 9.864 3.51466 10.782 4.50466L12.024 2.95666C10.8 1.75066 9.018 1.01266 7.236 1.01266ZM19.5771 1.01266C15.8151 1.01266 12.8991 3.74866 12.8991 7.36666C12.8991 10.9667 15.8151 13.7567 19.5771 13.7567C23.3391 13.7567 26.2551 10.9667 26.2551 7.36666C26.2551 3.76666 23.3391 1.01266 19.5771 1.01266ZM19.5951 2.92066C22.0611 2.92066 24.0771 4.86466 24.0771 7.36666C24.0771 9.86866 22.0611 11.8487 19.5951 11.8487C17.1291 11.8487 15.0591 9.86866 15.0591 7.36666C15.0591 4.86466 17.1111 2.92066 19.5951 2.92066ZM36.5074 13.6667H38.9194L36.0934 9.45466C37.7674 8.80666 38.7034 7.38466 38.7034 5.36866C38.7034 2.63266 36.8494 1.06666 33.6274 1.06666H28.5154V13.6667H30.6394V9.86866H33.6274C33.8254 9.86866 34.0234 9.86866 34.2034 9.85066L36.5074 13.6667ZM30.6394 7.96066V2.97466H33.6274C35.5714 2.97466 36.6874 3.76666 36.6874 5.42266C36.6874 7.13266 35.5714 7.96066 33.6274 7.96066H30.6394ZM45.6632 0.976656C42.9272 0.976656 41.0732 2.32666 41.0732 4.48666C41.0732 8.96866 47.8772 7.40266 47.8772 10.2107C47.8772 11.1827 46.9952 11.7407 45.5192 11.7407C44.1692 11.7407 42.5492 11.0927 41.2532 9.90466L40.3352 11.7407C41.6312 12.9287 43.5032 13.7387 45.4832 13.7387C48.2552 13.7387 50.2352 12.3527 50.2352 10.1027C50.2532 5.56666 43.4492 7.04266 43.4492 4.28866C43.4492 3.44266 44.2592 2.97466 45.5012 2.97466C46.4552 2.97466 47.8232 3.31666 49.1912 4.14466L50.0732 2.27266C48.9032 1.49866 47.3012 0.976656 45.6632 0.976656Z" />
</svg>
