<svg width="14" height="16" viewBox="0 0 14 16" fill="none" xmlns="http://www.w3.org/2000/svg">
<path d="M13.0872 14.7886C12.7722 15.1036 12.3449 15.2806 11.8993 15.2806C11.4538 15.2806 11.0265 15.1036 10.7114 14.7886L7.00004 10.5466L3.28864 14.7872C3.13311 14.9453 2.94781 15.071 2.74344 15.1571C2.53908 15.2433 2.31968 15.2881 2.09791 15.289C1.87614 15.2899 1.65638 15.2469 1.45132 15.1624C1.24626 15.078 1.05994 14.9537 0.903128 14.7969C0.746312 14.6401 0.622096 14.4538 0.537645 14.2487C0.453194 14.0437 0.410179 13.8239 0.411082 13.6021C0.411985 13.3804 0.456788 13.161 0.542906 12.9566C0.629024 12.7522 0.754754 12.5669 0.912842 12.4114L4.77404 8.00141L0.911442 3.5886C0.753354 3.43307 0.627624 3.24777 0.541506 3.04341C0.455388 2.83904 0.410585 2.61964 0.409682 2.39787C0.408779 2.1761 0.451794 1.95635 0.536245 1.75128C0.620696 1.54622 0.744912 1.35991 0.901729 1.20309C1.05854 1.04627 1.24486 0.922057 1.44992 0.837606C1.65498 0.753155 1.87474 0.71014 2.09651 0.711043C2.31828 0.711946 2.53768 0.756749 2.74204 0.842867C2.94641 0.928985 3.13171 1.05472 3.28724 1.2128L7.00004 5.4562L10.7114 1.2128C10.867 1.05472 11.0523 0.928985 11.2566 0.842867C11.461 0.756749 11.6804 0.711946 11.9022 0.711043C12.1239 0.71014 12.3437 0.753155 12.5488 0.837606C12.7538 0.922057 12.9401 1.04627 13.097 1.20309C13.2538 1.35991 13.378 1.54622 13.4624 1.75128C13.5469 1.95635 13.5899 2.1761 13.589 2.39787C13.5881 2.61964 13.5433 2.83904 13.4572 3.04341C13.3711 3.24777 13.2453 3.43307 13.0872 3.5886L9.22604 8.00141L13.0872 12.4114C13.2434 12.5674 13.3674 12.7527 13.4519 12.9567C13.5364 13.1606 13.58 13.3792 13.58 13.6C13.58 13.8208 13.5364 14.0394 13.4519 14.2433C13.3674 14.4473 13.2434 14.6326 13.0872 14.7886Z" fill="black"/>
</svg>
