<svg width="58" height="58" xmlns="http://www.w3.org/2000/svg">
<path d="M29.0032 0.0694605C12.9789 0.0628045 0 13.388 0 29.8349C0 42.8406 8.11909 53.8962 19.4262 57.9563C20.9489 58.349 20.7157 57.2375 20.7157 56.4787V51.3203C11.9227 52.3786 11.5663 46.4016 10.9767 45.4032C9.78438 43.3132 6.9657 42.7807 7.80807 41.7823C9.8103 40.724 11.8514 42.0486 14.2165 45.6361C15.9272 48.2386 19.2642 47.7993 20.9554 47.3667C21.3248 45.8025 22.1153 44.4048 23.2039 43.3199C14.0934 41.6426 10.2963 35.9318 10.2963 29.1427C10.2963 25.848 11.3525 22.8195 13.426 20.3768C12.1041 16.3499 13.5491 12.9021 13.7435 12.3896C17.5082 12.0435 21.422 15.1585 21.7265 15.4048C23.8648 14.8124 26.3077 14.4996 29.0421 14.4996C31.7895 14.4996 34.2389 14.8257 36.3966 15.4248C37.1288 14.8523 40.7575 12.1766 44.2565 12.5028C44.4444 13.0153 45.857 16.3832 44.6129 20.3568C46.7123 22.8062 47.7815 25.8613 47.7815 29.1626C47.7815 35.965 43.9584 41.6825 34.822 43.3332C35.6046 44.1237 36.226 45.0665 36.6498 46.1064C37.0737 47.1464 37.2916 48.2627 37.2908 49.3901V56.878C37.3426 57.4771 37.2908 58.0695 38.2628 58.0695C49.7384 54.0959 58 42.9604 58 29.8416C58 13.388 45.0146 0.0694605 29.0032 0.0694605V0.0694605Z" />
</svg>
