<svg viewBox="0 0 42 42" fill="none" xmlns="http://www.w3.org/2000/svg">
<path d="M41.1607 20.6559L22.0639 0.459962C21.9264 0.314155 21.7631 0.198478 21.5833 0.119552C21.4035 0.0406257 21.2108 0 21.0162 0C20.8215 0 20.6288 0.0406257 20.449 0.119552C20.2692 0.198478 20.1059 0.314155 19.9684 0.459962L0.871616 20.6559C0.315265 21.2447 0 22.0445 0 22.8786C0 24.6107 1.33061 26.0189 2.9672 26.0189H4.97934V40.4299C4.97934 41.2983 5.64233 42 6.46294 42H18.0489V31.009H23.2416V42H35.5694C36.39 42 37.053 41.2983 37.053 40.4299V26.0189H39.0651C39.8533 26.0189 40.609 25.6902 41.1653 25.0965C42.3198 23.8698 42.3198 21.8826 41.1607 20.6559Z" fill="#303030"/>
</svg>
