<svg width="208" height="160" fill="none" xmlns="http://www.w3.org/2000/svg">
<ellipse cx="104" cy="136.5" rx="104" ry="23.5" fill="#2C2C2C" fill-opacity="0.15"/>
<path d="M171.765 132.193L171.474 136.075L165.56 134.134L167.983 131.222L171.765 132.193Z" fill="#FEB8B8"/>
<path d="M193.29 130.931L192.998 134.716L189.702 135.202L187.763 133.357L189.993 129.766L193.29 130.931Z" fill="#FEB8B8"/>
<path d="M195.714 82.5947C195.714 82.5947 198.332 85.7006 195.035 90.4567C191.738 95.2127 187.763 99.8716 187.763 99.8716L180.393 113.848C180.393 113.848 176.612 127.534 175.739 127.922C174.867 128.31 174.382 126.757 174.867 128.407C175.351 130.057 175.061 129.96 174.673 130.058C174.285 130.155 173.219 129.961 173.606 130.64C173.994 131.32 174.285 131.32 173.509 131.32C172.734 131.32 172.443 130.835 172.443 131.514C172.443 132.193 171.764 133.746 171.764 133.746C171.764 133.746 167.013 132.387 166.819 131.805C166.625 131.223 168.08 130.931 167.789 130.349C167.498 129.767 167.401 129.767 167.401 128.893C167.401 128.02 167.983 127.826 167.983 127.826C167.983 127.826 168.468 127.632 168.274 127.243C168.08 126.855 167.304 127.049 168.274 126.564C169.243 126.078 173.219 111.228 173.219 111.228C173.219 111.228 173.219 103.85 174.479 101.424C175.74 98.9983 174.77 81.721 177.777 81.5269C180.784 81.3328 195.714 82.5947 195.714 82.5947Z" fill="#2F2E41"/>
<path d="M194.744 88.1271L194.162 103.171C194.162 103.171 197.071 117.731 196.101 122.195C195.132 126.66 195.81 126.078 195.229 126.854C194.647 127.631 194.162 127.242 194.647 127.922C195.131 128.601 195.421 128.795 194.647 129.572C193.872 130.349 193.483 132.193 193.483 132.193L188.538 131.708C188.538 131.708 189.799 129.476 189.313 128.99C188.827 128.505 187.568 129.281 188.538 128.215C189.509 127.148 190.09 127.632 189.508 127.147C188.926 126.662 188.054 126.856 188.829 126.079C189.605 125.303 190.478 125.304 189.702 125.012C188.926 124.72 188.053 125.012 188.441 124.429C188.83 123.847 189.314 123.168 189.314 123.168L188.151 114.335C188.151 114.335 186.793 111.423 187.181 110.161C187.569 108.9 185.532 98.5141 185.532 98.5141L194.744 88.1271Z" fill="#2F2E41"/>
<path d="M192.612 132.872C192.612 132.872 193.581 131.901 193.872 132.484C194.163 133.066 196.295 138.308 195.035 138.696C193.775 139.084 191.933 139.471 190.963 139.181C189.994 138.891 187.957 137.53 185.534 137.53C183.11 137.53 181.074 136.463 181.074 136.075C181.074 135.686 180.686 133.357 182.528 133.357C184.37 133.357 187.764 131.222 187.764 131.222C187.764 131.222 188.538 129.668 188.927 129.766C189.316 129.863 189.024 132.969 189.024 132.969C189.024 132.969 191.254 135.104 192.612 132.872Z" fill="#2F2E41"/>
<path d="M171.086 134.134C171.086 134.134 171.959 131.998 172.832 132.483C173.704 132.968 173.122 138.986 173.122 138.986C173.122 138.986 172.348 140.248 170.117 139.956C167.886 139.665 161.972 138.986 160.615 139.277C159.257 139.568 155.573 137.918 156.542 135.686C156.542 135.686 157.027 134.424 159.354 134.521C161.681 134.618 165.947 131.803 165.947 131.803C165.947 131.803 166.626 129.862 166.82 130.056C167.014 130.25 167.208 133.647 167.208 133.647C167.208 133.647 169.729 135.298 171.086 134.134Z" fill="#2F2E41"/>
<path d="M183.788 44.6441C186.894 44.6441 189.411 42.1237 189.411 39.0145C189.411 35.9054 186.894 33.3849 183.788 33.3849C180.682 33.3849 178.164 35.9054 178.164 39.0145C178.164 42.1237 180.682 44.6441 183.788 44.6441Z" fill="#FEB8B8"/>
<path d="M188.151 39.4027C188.151 39.4027 191.157 45.4204 192.223 46.0029C193.29 46.5853 184.951 50.1766 184.951 50.1766C184.951 50.1766 183.594 44.2559 181.946 42.9942C180.297 41.7325 188.151 39.4027 188.151 39.4027Z" fill="#FEB8B8"/>
<path d="M179.522 88.6123L179.134 92.3006C179.134 92.3006 174.965 90.8448 176.322 88.1271L179.522 88.6123Z" fill="#FEB8B8"/>
<path d="M177.874 83.08C180.782 86.1851 196.198 83.5644 196.198 83.5644L196.005 81.3322L197.944 79.2954L197.363 69.7827C197.363 69.7827 199.107 65.3185 199.398 58.5242C199.415 58.1066 199.39 57.6882 199.322 57.2758C198.323 51.1894 188.423 47.2694 188.151 47.3615C188.014 47.4066 186.557 48.1668 185.036 48.9666C183.29 49.8847 181.461 50.8557 181.461 50.8557C179.134 51.7307 179.522 65.7076 178.746 66.9691C177.97 68.2307 178.746 72.5967 178.746 72.5967L177.874 76.7701C177.874 76.7701 174.964 79.9749 177.874 83.08Z" fill="#F0F0F0"/>
<path opacity="0.1" d="M187.271 52.267C187.271 52.267 189.986 60.42 189.404 65.9526C188.822 71.4851 182.52 87.306 182.52 87.306L180.388 88.4707V91.1883L178.888 87.1201L183.014 78.4842C183.014 78.4842 177.865 48.6759 187.271 52.267Z" fill="black"/>
<path opacity="0.1" d="M184.725 49.8207C187.538 48.268 191.804 52.3461 196.264 56.7124C197.866 58.2799 198.792 58.1223 199.323 57.2755C198.324 51.1892 188.423 47.2692 188.151 47.3612C188.015 47.4064 186.557 48.1666 185.036 48.9664L184.725 49.8207Z" fill="black"/>
<path d="M184.726 49.0704L185.89 45.8674C185.89 45.8674 193.84 42.082 199.076 45.8674L199.948 51.3027C199.948 51.3027 200.723 60.3294 196.264 55.9617C191.805 51.5941 187.538 47.5173 184.726 49.0704Z" fill="#F0F0F0"/>
<path d="M186.988 50.953C186.988 50.953 189.703 59.106 189.121 64.6386C188.539 70.1711 182.237 85.992 182.237 85.992L180.104 87.1575V89.8752L175.644 88.6135L176.613 85.4105C176.613 85.4105 175.062 83.4693 176.128 82.8869C177.195 82.3044 177.001 79.1015 177.001 79.1015C177.001 79.1015 177.583 47.3617 186.988 50.953Z" fill="#F0F0F0"/>
<path d="M188.801 41.3712C188.71 40.9361 188.722 40.468 188.514 40.0752C188.201 39.4864 187.483 39.24 186.819 39.182C185.972 39.1082 185.119 39.2549 184.27 39.1969C183.422 39.1388 182.516 38.8151 182.093 38.0763C181.925 37.7816 181.842 37.4346 181.618 37.1791C181.153 36.6474 180.306 36.7297 179.637 36.9576C178.969 37.1855 178.272 37.5183 177.589 37.3402C177.014 35.7312 177.722 33.8753 178.945 32.684C180.169 31.4926 181.819 30.8515 183.458 30.3737C185.619 29.7433 188.051 29.3709 190.039 30.4298C192.92 31.9651 193.937 36.0291 193.672 39.0581C193.571 40.2031 193.407 41.4996 192.482 42.2726C191.127 43.4056 189.211 43.3084 188.801 41.3712Z" fill="#2F2E41"/>
<path d="M153.518 0.0700073H32.0532V77.9429H153.518V0.0700073Z" fill="#E6E6E6"/>
<path d="M150.44 9.83617H35.9224V73.3349H150.44V9.83617Z" fill="white"/>
<path d="M153.464 0H32V5.16565H153.464V0Z" fill="#0067C7"/>
<path d="M35.8349 3.59847C36.3632 3.59847 36.7914 3.16979 36.7914 2.64099C36.7914 2.11218 36.3632 1.6835 35.8349 1.6835C35.3066 1.6835 34.8784 2.11218 34.8784 2.64099C34.8784 3.16979 35.3066 3.59847 35.8349 3.59847Z" fill="white"/>
<path d="M39.4653 3.59847C39.9935 3.59847 40.4218 3.16979 40.4218 2.64099C40.4218 2.11218 39.9935 1.6835 39.4653 1.6835C38.937 1.6835 38.5088 2.11218 38.5088 2.64099C38.5088 3.16979 38.937 3.59847 39.4653 3.59847Z" fill="white"/>
<path d="M43.0952 3.59847C43.6234 3.59847 44.0516 3.16979 44.0516 2.64099C44.0516 2.11218 43.6234 1.6835 43.0952 1.6835C42.5669 1.6835 42.1387 2.11218 42.1387 2.64099C42.1387 3.16979 42.5669 3.59847 43.0952 3.59847Z" fill="white"/>
<path d="M55.9578 18.7363L48.3828 26.2246L55.9578 33.7126L57.6622 32.0065L51.9342 26.2717L57.7101 20.4898L55.9578 18.7363Z" fill="#0067C7"/>
<path d="M62.1644 18.7363L69.7391 26.2246L62.1644 33.7126L60.46 32.0065L66.1883 26.2719L60.4121 20.4898L62.1644 18.7363Z" fill="#0067C7"/>
<path d="M86.6662 20.6155C86.0466 20.6155 85.5444 20.9722 85.5444 21.4121C85.5444 21.852 86.0466 22.2087 86.6662 22.2087H139.549C140.168 22.2087 140.67 21.852 140.67 21.4121C140.67 20.9722 140.168 20.6155 139.549 20.6155H86.6662Z" fill="#E6E6E6"/>
<path d="M139.023 64.2599H50.0614C49.152 64.2599 48.4151 63.7344 48.4141 63.0867V47.3688C48.4151 46.7211 49.152 46.1956 50.0614 46.1956H139.023C139.932 46.1956 140.669 46.7211 140.67 47.3688V63.0865C140.669 63.7342 139.932 64.2591 139.023 64.2599ZM50.0614 46.6645C49.5158 46.6645 49.0736 46.9799 49.073 47.3684V63.0861C49.073 63.4746 49.5158 63.7896 50.0614 63.79H139.023C139.568 63.79 140.011 63.4746 140.011 63.0861V47.3688C140.011 46.9803 139.568 46.6653 139.023 46.6649L50.0614 46.6645Z" fill="#E6E6E6"/>
<path d="M59.2228 59.2052C61.4209 59.2052 63.2028 57.4214 63.2028 55.221C63.2028 53.0205 61.4209 51.2367 59.2228 51.2367C57.0246 51.2367 55.2427 53.0205 55.2427 55.221C55.2427 57.4214 57.0246 59.2052 59.2228 59.2052Z" fill="#E6E6E6"/>
<path d="M70.4482 52.0345C70.2371 52.0343 70.0346 52.1179 69.8852 52.2671C69.7357 52.4163 69.6516 52.6188 69.6514 52.8301C69.6511 53.0414 69.7347 53.2441 69.8837 53.3937C70.0328 53.5433 70.2351 53.6275 70.4461 53.6278H107.965C108.176 53.6278 108.378 53.5438 108.527 53.3944C108.677 53.245 108.76 53.0424 108.76 52.8311C108.76 52.6199 108.677 52.4173 108.527 52.2679C108.378 52.1185 108.176 52.0345 107.965 52.0345H70.4482Z" fill="#0067C7"/>
<path d="M70.4482 56.8144C70.3437 56.8143 70.2402 56.8347 70.1436 56.8747C70.047 56.9146 69.9592 56.9731 69.8852 57.047C69.7357 57.1962 69.6516 57.3987 69.6514 57.61C69.6511 57.8213 69.7347 58.024 69.8837 58.1736C70.0328 58.3232 70.2351 58.4074 70.4461 58.4076H86.5914C86.8024 58.4079 87.0049 58.3243 87.1544 58.1751C87.3038 58.0258 87.3879 57.8233 87.3882 57.6121C87.3884 57.4008 87.3049 57.1981 87.1558 57.0485C87.0068 56.8989 86.8045 56.8147 86.5934 56.8144H70.4482Z" fill="#0067C7"/>
<path d="M86.2801 25.388C86.0801 25.4041 85.8935 25.4951 85.7575 25.6427C85.6214 25.7903 85.5459 25.9838 85.5459 26.1846C85.5459 26.3855 85.6214 26.5789 85.7575 26.7265C85.8935 26.8742 86.0801 26.9651 86.2801 26.9812H120.938C121.138 26.9651 121.324 26.8742 121.461 26.7265C121.597 26.5789 121.672 26.3855 121.672 26.1846C121.672 25.9838 121.597 25.7903 121.461 25.6427C121.324 25.4951 121.138 25.4041 120.938 25.388H86.2801Z" fill="#E6E6E6"/>
<path d="M86.5081 30.1605C85.9759 30.1605 85.5444 30.5173 85.5444 30.9571C85.5444 31.397 85.9759 31.7537 86.5081 31.7537H131.938C132.471 31.7537 132.902 31.397 132.902 30.9571C132.902 30.5173 132.471 30.1605 131.938 30.1605H86.5081Z" fill="#E6E6E6"/>
</svg>
