<svg width="24" height="11" xmlns="http://www.w3.org/2000/svg">
<path fill-rule="evenodd" clip-rule="evenodd" d="M5.24965 10.7479C4.31012 10.7477 3.38786 10.4942 2.57907 10.0139C1.77028 9.53353 1.1046 8.84393 0.651471 8.01701C0.198342 7.19009 -0.0256324 6.25616 0.00291257 5.31264C0.0314575 4.36912 0.311476 3.45058 0.813756 2.65284C1.31604 1.8551 2.02218 1.2074 2.85851 0.777294C3.69484 0.347188 4.63073 0.150442 5.56853 0.20758C6.50634 0.264718 7.4117 0.573647 8.19018 1.10214C8.96865 1.63063 9.59172 2.35932 9.99437 3.21219H21.0004L23.2505 5.47291L21.0004 7.73362L19.5003 6.22648L18.0002 7.73362L16.5002 6.22648L15.0001 7.73362L13.5 6.22648L12 7.73362H9.99437C9.56849 8.63569 8.89655 9.3978 8.05665 9.93139C7.21675 10.465 6.24337 10.7481 5.24965 10.7479V10.7479ZM3.74958 6.98005C4.14742 6.98005 4.52897 6.82126 4.81029 6.53862C5.09161 6.25597 5.24965 5.87263 5.24965 5.47291C5.24965 5.07319 5.09161 4.68984 4.81029 4.4072C4.52897 4.12455 4.14742 3.96576 3.74958 3.96576C3.35174 3.96576 2.97019 4.12455 2.68887 4.4072C2.40755 4.68984 2.24951 5.07319 2.24951 5.47291C2.24951 5.87263 2.40755 6.25597 2.68887 6.53862C2.97019 6.82126 3.35174 6.98005 3.74958 6.98005V6.98005Z" />
</svg>
