<svg width="12" height="16" xmlns="http://www.w3.org/2000/svg">
<path d="M10.3097 5.45043H9.63287V3.94376C9.63287 1.86456 8.11667 0.177094 6.2485 0.177094C4.38032 0.177094 2.86412 1.86456 2.86412 3.94376V5.45043H2.18725C1.44268 5.45043 0.833496 6.12843 0.833496 6.95709V14.4904C0.833496 15.3191 1.44268 15.9971 2.18725 15.9971H10.3097C11.0543 15.9971 11.6635 15.3191 11.6635 14.4904V6.95709C11.6635 6.12843 11.0543 5.45043 10.3097 5.45043ZM6.2485 12.2304C5.50393 12.2304 4.89475 11.5524 4.89475 10.7238C4.89475 9.89509 5.50393 9.21709 6.2485 9.21709C6.99306 9.21709 7.60225 9.89509 7.60225 10.7238C7.60225 11.5524 6.99306 12.2304 6.2485 12.2304ZM8.34681 5.45043H4.15018V3.94376C4.15018 2.65556 5.09104 1.60843 6.2485 1.60843C7.40595 1.60843 8.34681 2.65556 8.34681 3.94376V5.45043Z" />
</svg>
