<svg width="15" height="15" viewBox="0 0 15 15" fill="none" xmlns="http://www.w3.org/2000/svg">
<path d="M14.8773 13.855L10.0587 9.03633C10.8064 8.06963 11.2109 6.88769 11.2109 5.64453C11.2109 4.15645 10.6302 2.76113 9.57998 1.70908C8.52978 0.657031 7.13076 0.078125 5.64453 0.078125C4.1583 0.078125 2.75928 0.658887 1.70908 1.70908C0.657031 2.75928 0.078125 4.15645 0.078125 5.64453C0.078125 7.13076 0.658887 8.52978 1.70908 9.57998C2.75928 10.632 4.15645 11.2109 5.64453 11.2109C6.88769 11.2109 8.06777 10.8064 9.03447 10.0605L13.8531 14.8773C13.8673 14.8915 13.884 14.9027 13.9025 14.9103C13.921 14.918 13.9408 14.9219 13.9607 14.9219C13.9807 14.9219 14.0005 14.918 14.019 14.9103C14.0375 14.9027 14.0542 14.8915 14.0684 14.8773L14.8773 14.0702C14.8915 14.0561 14.9027 14.0393 14.9103 14.0208C14.918 14.0024 14.9219 13.9826 14.9219 13.9626C14.9219 13.9426 14.918 13.9228 14.9103 13.9044C14.9027 13.8859 14.8915 13.8691 14.8773 13.855ZM8.58359 8.58359C7.79687 9.36846 6.7541 9.80078 5.64453 9.80078C4.53496 9.80078 3.49219 9.36846 2.70547 8.58359C1.92061 7.79687 1.48828 6.7541 1.48828 5.64453C1.48828 4.53496 1.92061 3.49033 2.70547 2.70547C3.49219 1.92061 4.53496 1.48828 5.64453 1.48828C6.7541 1.48828 7.79873 1.91875 8.58359 2.70547C9.36846 3.49219 9.80078 4.53496 9.80078 5.64453C9.80078 6.7541 9.36846 7.79873 8.58359 8.58359Z" fill="black"/>
</svg>
